<?xml version="1.0" encoding="iso-8859-1"?>
<!-- Generator: Adobe Illustrator 16.0.0, SVG Export Plug-In . SVG Version: 6.00 Build 0)  -->
<!DOCTYPE svg PUBLIC "-//W3C//DTD SVG 1.1//EN" "http://www.w3.org/Graphics/SVG/1.1/DTD/svg11.dtd">
<svg xmlns="http://www.w3.org/2000/svg" xmlns:xlink="http://www.w3.org/1999/xlink" version="1.1" id="Capa_1" x="0px" y="0px" width="512px" height="512px" viewBox="0 0 56.45 56.45" style="enable-background:new 0 0 56.45 56.45;" xml:space="preserve">
<g>
	<g>
		<g>
			<path d="M14.978,52.735c0,0,2.771-5.109,7.028-3.048C22.003,49.692,21.501,53.938,14.978,52.735z" fill="#dec445"/>
			<path d="M20.588,41.521c0,0-2.764,5.109,1.304,7.546C21.892,49.069,25.164,46.323,20.588,41.521z" fill="#dec445"/>
			<path d="M18.08,39.761c0,0-3.742,4.45-0.251,7.652C17.827,47.413,21.593,45.39,18.08,39.761z" fill="#dec445"/>
			<path d="M15.388,37.479c0,0-4.097,4.124-0.888,7.607C14.5,45.087,18.421,43.378,15.388,37.479z" fill="#dec445"/>
			<path d="M13.415,34.696c0,0-4.651,3.479-1.983,7.396C11.436,42.092,15.559,40.97,13.415,34.696z" fill="#dec445"/>
			<path d="M12.403,31.455c0,0-5.347,2.283-3.682,6.716C8.717,38.171,12.992,38.063,12.403,31.455z" fill="#dec445"/>
			<path d="M11.786,27.587c0,0-5.582,1.617-4.466,6.224C7.32,33.812,11.579,34.218,11.786,27.587z" fill="#dec445"/>
			<path d="M12.279,24.175c0,0-5.559,0.196-5.597,4.728C6.682,28.905,10.534,30.278,12.279,24.175z" fill="#dec445"/>
			<path d="M12.787,20.587c0,0-5.457-0.31-5.908,4.125C6.878,24.712,10.525,26.406,12.787,20.587z" fill="#dec445"/>
			<path d="M14.753,16.901c0,0-5.457-1.048-6.504,3.359C8.249,20.26,11.693,22.458,14.753,16.901z" fill="#dec445"/>
			<path d="M17.519,13.855c0,0-5.092-1.979-6.878,2.095C10.638,15.953,13.576,18.686,17.519,13.855z" fill="#dec445"/>
			<path d="M20.866,11.605c0,0-4.247-2.78-6.667,0.579C14.202,12.185,16.351,15.235,20.866,11.605z" fill="#dec445"/>
			<path d="M10.915,49.865c0,0,3.916-4.3,7.555-1.264C18.472,48.602,16.961,52.603,10.915,49.865z" fill="#dec445"/>
			<path d="M7.194,47.056c0,0,4.286-3.926,7.638-0.575C14.831,46.48,12.963,50.329,7.194,47.056z" fill="#dec445"/>
			<path d="M4.457,43.622c0,0,4.708-3.407,7.65,0.309C12.111,43.931,9.815,47.534,4.457,43.622z" fill="#dec445"/>
			<path d="M2.128,39.61c0,0,5.211-2.578,7.493,1.58C9.622,41.19,6.755,44.363,2.128,39.61z" fill="#dec445"/>
			<path d="M0.706,35.616c0,0,5.47-1.974,7.269,2.406C7.977,38.022,4.772,40.855,0.706,35.616z" fill="#dec445"/>
			<path d="M0,31.247c0,0,5.73-0.974,6.729,3.654C6.727,34.901,3.074,37.124,0,31.247z" fill="#dec445"/>
			<path d="M0.098,26.74c0,0,5.811,0.069,5.968,4.806C6.066,31.546,2.07,33.074,0.098,26.74z" fill="#dec445"/>
			<path d="M0.724,22.441c0,0,5.739,0.916,5.202,5.618C5.924,28.062,1.75,28.996,0.724,22.441z" fill="#dec445"/>
			<path d="M1.838,18.427c0,0,5.62,1.474,4.625,6.101C6.463,24.53,2.222,25.051,1.838,18.427z" fill="#dec445"/>
			<path d="M3.677,14.621c0,0,5.327,2.313,3.638,6.74C7.313,21.36,3.042,21.225,3.677,14.621z" fill="#dec445"/>
			<path d="M6.281,10.858c0,0,4.89,3.146,2.501,7.241C8.786,18.1,4.589,17.272,6.281,10.858z" fill="#dec445"/>
			<path d="M9.448,7.756c0,0,4.301,3.913,1.273,7.552C10.721,15.311,6.72,13.802,9.448,7.756z" fill="#dec445"/>
			<path d="M13.58,5.259c0,0,3.103,4.915-0.785,7.62C12.795,12.879,9.341,10.361,13.58,5.259z" fill="#dec445"/>
			<path d="M18.143,3.5c0,0,1.831,5.515-2.59,7.204C15.55,10.704,12.8,7.432,18.143,3.5z" fill="#dec445"/>
			<path d="M24.201,6.425c0,0-2.176,5.44-6.683,3.861C17.519,10.286,17.528,5.977,24.201,6.425z" fill="#dec445"/>
			<path d="M41.472,52.735c0,0-2.771-5.109-7.03-3.048C34.442,49.692,34.948,53.938,41.472,52.735z" fill="#dec445"/>
			<path d="M35.863,41.521c0,0,2.76,5.109-1.307,7.546C34.556,49.069,31.283,46.323,35.863,41.521z" fill="#dec445"/>
			<path d="M38.373,39.761c0,0,3.736,4.45,0.248,7.652C38.621,47.413,34.857,45.39,38.373,39.761z" fill="#dec445"/>
			<path d="M41.057,37.479c0,0,4.097,4.124,0.89,7.607C41.947,45.087,38.021,43.378,41.057,37.479z" fill="#dec445"/>
			<path d="M43.033,34.696c0,0,4.653,3.479,1.981,7.396C45.014,42.092,40.888,40.97,43.033,34.696z" fill="#dec445"/>
			<path d="M44.042,31.455c0,0,5.348,2.283,3.682,6.716C47.729,38.171,43.455,38.063,44.042,31.455z" fill="#dec445"/>
			<path d="M44.661,27.587c0,0,5.587,1.617,4.467,6.224C49.127,33.812,44.871,34.218,44.661,27.587z" fill="#dec445"/>
			<path d="M44.168,24.175c0,0,5.557,0.196,5.596,4.728C49.768,28.905,45.909,30.278,44.168,24.175z" fill="#dec445"/>
			<path d="M43.655,20.587c0,0,5.461-0.31,5.908,4.125C49.572,24.712,45.92,26.406,43.655,20.587z" fill="#dec445"/>
			<path d="M41.693,16.901c0,0,5.461-1.048,6.511,3.359C48.204,20.26,44.752,22.458,41.693,16.901z" fill="#dec445"/>
			<path d="M38.931,13.855c0,0,5.094-1.979,6.877,2.095C45.808,15.953,42.871,18.686,38.931,13.855z" fill="#dec445"/>
			<path d="M35.576,11.605c0,0,4.252-2.78,6.67,0.579C42.248,12.185,40.094,15.235,35.576,11.605z" fill="#dec445"/>
			<path d="M45.528,49.865c0,0-3.917-4.3-7.551-1.264C37.977,48.602,39.481,52.603,45.528,49.865z" fill="#dec445"/>
			<path d="M49.255,47.056c0,0-4.289-3.926-7.64-0.575C41.611,46.48,43.484,50.329,49.255,47.056z" fill="#dec445"/>
			<path d="M51.993,43.622c0,0-4.708-3.407-7.653,0.309C44.334,43.931,46.632,47.534,51.993,43.622z" fill="#dec445"/>
			<path d="M54.319,39.61c0,0-5.207-2.578-7.495,1.58C46.824,41.19,49.686,44.363,54.319,39.61z" fill="#dec445"/>
			<path d="M55.736,35.616c0,0-5.466-1.974-7.266,2.406C48.47,38.022,51.673,40.855,55.736,35.616z" fill="#dec445"/>
			<path d="M56.45,31.247c0,0-5.73-0.974-6.729,3.654C49.72,34.901,53.373,37.124,56.45,31.247z" fill="#dec445"/>
			<path d="M56.349,26.74c0,0-5.81,0.069-5.97,4.806C50.379,31.546,54.372,33.074,56.349,26.74z" fill="#dec445"/>
			<path d="M55.722,22.441c0,0-5.739,0.916-5.201,5.618C50.523,28.062,54.698,28.996,55.722,22.441z" fill="#dec445"/>
			<path d="M54.611,18.427c0,0-5.623,1.474-4.623,6.101C49.978,24.53,54.228,25.051,54.611,18.427z" fill="#dec445"/>
			<path d="M52.773,14.621c0,0-5.331,2.313-3.641,6.74C49.132,21.36,53.4,21.225,52.773,14.621z" fill="#dec445"/>
			<path d="M50.169,10.858c0,0-4.893,3.146-2.5,7.241C47.661,18.1,51.856,17.272,50.169,10.858z" fill="#dec445"/>
			<path d="M46.997,7.756c0,0-4.304,3.913-1.268,7.552C45.729,15.311,49.725,13.802,46.997,7.756z" fill="#dec445"/>
			<path d="M42.866,5.259c0,0-3.103,4.915,0.789,7.62C43.651,12.879,47.106,10.361,42.866,5.259z" fill="#dec445"/>
			<path d="M38.299,3.5c0,0-1.83,5.515,2.596,7.204C40.897,10.704,43.651,7.432,38.299,3.5z" fill="#dec445"/>
			<path d="M32.25,6.425c0,0,2.177,5.44,6.682,3.861C38.931,10.286,38.917,5.977,32.25,6.425z" fill="#dec445"/>
		</g>
		<path d="M16.71,35.613l0.374-0.342c0.325-0.308,0.717-0.575,1.201-0.833l0.388-0.207c0.473-0.258,0.952-0.516,1.44-0.748    c0.493-0.233,0.996-0.438,1.495-0.648l1.556-0.641c-0.002-0.007-0.009-0.012-0.009-0.017c0.009-0.533-0.118-1.09,0.278-1.546    c0.014-0.019,0.018-0.037,0.027-0.051c0.191-0.424,0.256-0.892,0.488-1.3c-0.231-0.43-0.413-0.885-0.495-1.413    c-0.007-0.047-0.058-0.173-0.098-0.265c-0.065-0.159-0.136-0.325-0.18-0.486c-0.125-0.432-0.234-0.869-0.33-1.308    c-0.049-0.196-0.049-0.373-0.051-0.488c-0.065-0.422,0.012-0.738,0.14-1.013c-0.145-0.125-0.277-0.244-0.42-0.36    c-0.154-0.136-0.173-0.243-0.024-0.388c0.063-0.063,0.145-0.112,0.229-0.168c-0.019-0.026-0.036-0.049-0.049-0.073    c-0.1,0-0.201-0.014-0.299,0.002c-0.365,0.056-0.729,0.113-1.096,0.199c-0.68,0.16-1.345,0.374-1.901,0.829    c-0.381,0.316-0.685,0.68-0.727,1.196c-0.019,0.272-0.014,0.544-0.019,0.82c-0.004,0.439,0.005,0.883-0.004,1.319    c-0.004,0.072-0.044,0.192-0.091,0.206c-0.178,0.058-0.187,0.173-0.158,0.325c0.016,0.103,0.002,0.21,0.025,0.308    c0.061,0.278,0.131,0.552,0.208,0.826c0.06,0.205,0.176,0.397,0.211,0.603c0.058,0.412,0.214,0.767,0.488,1.079    c0.049,0.052,0.081,0.139,0.076,0.205c-0.021,0.316-0.049,0.632-0.098,0.946c-0.009,0.057-0.07,0.153-0.125,0.164    c-0.211,0.046-0.243,0.206-0.292,0.367c-0.064,0.217-0.143,0.436-0.225,0.637c-0.023,0.064-0.091,0.137-0.152,0.16    c-0.374,0.164-0.754,0.314-1.128,0.474c-0.401,0.165-0.809,0.324-1.201,0.516c-0.404,0.192-0.794,0.411-1.188,0.623    c-0.236,0.123-0.448,0.263-0.633,0.436v0.693c0.789,0,1.579,0,2.372,0v-0.634H16.71V35.613z" fill="#dec445"/>
		<path d="M41.511,35.084c-1.154-0.593-2.346-1.081-3.55-1.546c-0.091-0.034-0.2-0.101-0.237-0.181    c-0.096-0.217-0.164-0.444-0.239-0.678c-0.048-0.142-0.08-0.28-0.244-0.351c-0.046-0.019-0.08-0.104-0.08-0.155    c0.01-0.529-0.116-1.086,0.276-1.547c0.016-0.014,0.021-0.032,0.029-0.048c0.21-0.458,0.244-0.992,0.541-1.422    c0.009-0.01,0.009-0.027,0.009-0.038c0.039-0.331,0.068-0.66,0.101-0.99c0-0.042-0.036-0.114-0.066-0.124    c-0.157-0.059-0.148-0.191-0.148-0.325c0-0.638,0-1.288,0-1.925c-0.004-0.375-0.113-0.707-0.396-0.959    c-0.321-0.29-0.652-0.568-0.98-0.849c-0.16-0.136-0.174-0.241-0.025-0.388c0.057-0.061,0.144-0.112,0.23-0.166    c-0.021-0.029-0.039-0.049-0.051-0.078c-0.1,0-0.2-0.009-0.296,0.004c-0.365,0.058-0.734,0.113-1.095,0.199    c-0.562,0.131-1.096,0.334-1.584,0.64l0.032,0.891c-0.032,0.397-0.068,0.78-0.114,1.164l-0.063,0.658l-0.196,0.308    c-0.146,0.22-0.242,0.541-0.347,0.922c-0.104,0.348-0.21,0.7-0.36,1.028l-0.062,0.11c0.009,0.034,0.019,0.066,0.027,0.104    c0.06,0.206,0.178,0.397,0.212,0.603c0.058,0.413,0.215,0.767,0.488,1.079c0.048,0.053,0.08,0.139,0.075,0.205    c-0.019,0.317-0.048,0.632-0.096,0.946c-0.005,0.019-0.027,0.025-0.036,0.046c1.53,0.598,3.253,1.305,4.938,2.172    c0.447,0.23,0.853,0.526,1.206,0.881l0.331,0.342v0.634c0.794,0,1.583,0,2.372,0v-0.726    C41.942,35.342,41.746,35.198,41.511,35.084z" fill="#dec445"/>
		<path d="M37.671,35.422c-1.727-0.89-3.521-1.619-5.337-2.32c-0.133-0.048-0.297-0.152-0.35-0.271    c-0.146-0.331-0.246-0.676-0.351-1.022c-0.069-0.219-0.133-0.429-0.37-0.534c-0.063-0.027-0.123-0.15-0.123-0.236    c0.014-0.799-0.169-1.629,0.42-2.327c0.018-0.021,0.027-0.049,0.041-0.078c0.321-0.693,0.374-1.492,0.823-2.14    c0.012-0.018,0.016-0.039,0.016-0.056c0.048-0.493,0.105-0.988,0.145-1.485c0.004-0.059-0.048-0.169-0.107-0.188    c-0.242-0.086-0.229-0.283-0.229-0.481c0-0.965,0-1.935,0-2.898c-0.004-0.563-0.169-1.063-0.593-1.444    c-0.483-0.437-0.98-0.855-1.479-1.275c-0.242-0.204-0.259-0.36-0.037-0.584c0.096-0.098,0.229-0.169,0.341-0.251    c-0.027-0.039-0.048-0.077-0.075-0.114c-0.146,0-0.303-0.021-0.447,0.004c-0.548,0.086-1.098,0.164-1.64,0.292    c-1.027,0.243-2.03,0.565-2.868,1.254c-0.575,0.472-1.028,1.023-1.09,1.801c-0.031,0.406-0.026,0.818-0.031,1.222    c-0.002,0.664,0.007,1.327-0.007,1.995c-0.002,0.107-0.063,0.283-0.143,0.308c-0.265,0.089-0.274,0.258-0.239,0.483    c0.023,0.152,0.002,0.318,0.038,0.463c0.096,0.418,0.196,0.829,0.315,1.24c0.087,0.307,0.26,0.593,0.312,0.9    c0.096,0.624,0.324,1.159,0.738,1.623c0.07,0.078,0.123,0.21,0.114,0.311c-0.033,0.475-0.077,0.951-0.145,1.424    c-0.014,0.091-0.109,0.232-0.189,0.246c-0.317,0.062-0.364,0.311-0.439,0.554c-0.101,0.326-0.21,0.648-0.334,0.961    c-0.042,0.101-0.137,0.203-0.235,0.241c-0.563,0.244-1.136,0.466-1.703,0.712c-0.604,0.246-1.212,0.493-1.801,0.773    c-0.61,0.29-1.199,0.62-1.792,0.933c-0.346,0.183-0.675,0.397-0.949,0.65v1.043c6.898,0,13.791,0,20.688,0v-1.086    C38.313,35.816,38.016,35.598,37.671,35.422z" fill="#dec445"/>
	</g>
</g>
<g>
</g>
<g>
</g>
<g>
</g>
<g>
</g>
<g>
</g>
<g>
</g>
<g>
</g>
<g>
</g>
<g>
</g>
<g>
</g>
<g>
</g>
<g>
</g>
<g>
</g>
<g>
</g>
<g>
</g>
</svg>
